{"title":"Rugby.Union.Cardiff.Blues.v.Ulster.pdtv.x264","uid":11063392,"size":1241280634,"categoryP":"video","categoryS":"tv_shows","magnet":"?xt=urn:btih:cd5f98953747ee0510c75a609f30989aeb268de7&amp;dn=Rugby.Union.Cardiff.Blues.v.Ulster.pdtv.x264&amp;tr=udp%3A%2F%2Ftracker.openbittorrent.com%3A80&amp;tr=udp%3A%2F%2Fopen.demonii.com%3A1337&amp;tr=udp%3A%2F%2Ftracker.coppersurfer.tk%3A6969&amp;tr=udp%3A%2F%2Fexodus.desync.com%3A6969","seeders":0,"leechers":0,"uploader":"rugbybill","files":2,"time":1411193035,"description":"SPORT: Ulster Rugby Live - Blues v Ulster\nOn: BBC 2 Northern Ireland     \nDate: Friday 19th September 2014 \nTime: 19:30 to 21:30 \n\nStephen Watson presents live coverage as Ulster travel to Cardiff to take on the Blues in the Pro 12 series. Commentary is from Jim Neilly and Tony McWhirter.\n\n\nGeneral\nComplete name                            : 2014.09.19.Pro12.Blues.v.Ulster.pdtv.x264.mp4\nFormat                                   : MPEG-4\nFormat profile                           : Base Media\nCodec ID                                 : isom\nFile size                                : 1.16 GiB\nDuration                                 : 2h 0mn\nOverall bit rate mode                    : Variable\nOverall bit rate                         : 1 379 Kbps\n\nVideo\nID                                       : 1\nFormat                                   : AVC\nFormat/Info                              : Advanced Video Codec\nFormat profile                           : &lt;a class=&quot;__cf_email__&quot; href=&quot;/cdn-cgi/l/email-protection&quot; data-cfemail=&quot;a0e8c9c7c8e0ec938e90&quot;&gt;[email&amp;#160;protected]&lt;/a&gt;&lt;script data-cfhash='f9e31' type=&quot;text/javascript&quot;&gt;\n/* &lt;![CDATA[ */!function(){try{var t=&quot;currentScript&quot;in document?document.currentScript:function(){for(var t=document.getElementsByTagName(&quot;script&quot;),e=t.length;e--;)if(t[e].getAttribute(&quot;data-cfhash&quot;))return t[e]}();if(t&amp;&amp;t.previousSibling){var e,r,n,i,c=t.previousSibling,a=c.getAttribute(&quot;data-cfemail&quot;);if(a){for(e=&quot;&quot;,r=parseInt(a.substr(0,2),16),n=2;a.length-n;n+=2)i=parseInt(a.substr(n,2),16)^r,e+=String.fromCharCode(i);e=document.createTextNode(e),c.parentNode.replaceChild(e,c)}t.parentNode.removeChild(t);}}catch(u){}}()/* ]]&gt; */&lt;/script&gt;\nFormat settings, CABAC                   : Yes\nFormat settings, ReFrames                : 4 frames\nCodec ID                                 : avc1\nCodec ID/Info                            : Advanced Video Coding\nDuration                                 : 2h 0mn\nBit rate                                 : 1 250 Kbps\nMaximum bit rate                         : 5 083 Kbps\nWidth                                    : 704 pixels\nHeight                                   : 560 pixels\nDisplay aspect ratio                     : 16:9\nOriginal display aspect ratio            : 16:9\nFrame rate mode                          : Constant\nFrame rate                               : 25.000 fps\nColor space                              : YUV\nChroma subsampling                       : 4:2:0\nBit depth                                : 8 bits\nScan type                                : Progressive\nBits/(Pixel*Frame)                       : 0.127\nStream size                              : 1.05 GiB (90%)\nWriting library                          : x264 core 142 r2431 ac76440\nEncoding settings                        : cabac=1 / ref=3 / deblock=1:0:0 / analyse=0x3:0x113 / me=hex / subme=7 / psy=1 / psy_rd=1.00:0.00 / mixed_ref=1 / me_range=16 / chroma_me=1 / trellis=1 / 8x8dct=1 / cqm=0 / deadzone=21,11 / fast_pskip=1 / chroma_qp_offset=-2 / threads=6 / lookahead_threads=1 / sliced_threads=0 / nr=0 / decimate=1 / interlaced=0 / bluray_compat=0 / constrained_intra=0 / bframes=3 / b_pyramid=2 / b_adapt=1 / b_bias=0 / direct=1 / weightb=1 / open_gop=0 / weightp=2 / keyint=250 / keyint_min=25 / scenecut=40 / intra_refresh=0 / rc_lookahead=40 / rc=abr / mbtree=1 / bitrate=1250 / ratetol=1.0 / qcomp=0.60 / qpmin=0 / qpmax=69 / qpstep=4 / ip_ratio=1.40 / aq=1:1.00\n\nAudio\nID                                       : 2\nFormat                                   : AAC\nFormat/Info                              : Advanced Audio Codec\nFormat profile                           : LC\nCodec ID                                 : 40\nDuration                                 : 2h 0mn\nBit rate mode                            : Variable\nBit rate                                 : 128 Kbps\nMaximum bit rate                         : 145 Kbps\nChannel(s)                               : 2 channels\nChannel positions                        : Front: L R\nSampling rate                            : 48.0 KHz\nCompression mode                         : Lossy\nStream size                              : 110 MiB (9%)","torrent":{"xt":"urn:btih:cd5f98953747ee0510c75a609f30989aeb268de7","amp;dn":"Rugby.Union.Cardiff.Blues.v.Ulster.pdtv.x264","amp;tr":["udp%3A%2F%2Ftracker.openbittorrent.com%3A80","udp%3A%2F%2Fopen.demonii.com%3A1337","udp%3A%2F%2Ftracker.coppersurfer.tk%3A6969","udp%3A%2F%2Fexodus.desync.com%3A6969"],"infoHash":"cd5f98953747ee0510c75a609f30989aeb268de7","infoHashBuffer":{"type":"Buffer","data":[205,95,152,149,55,71,238,5,16,199,90,96,159,48,152,154,235,38,141,231]},"announce":[],"urlList":[]}}